<svg xmlns="http://www.w3.org/2000/svg" width="17.716" height="17.714" viewBox="0 0 17.716 17.714"><path d="M31.358,40.221a8.836,8.836,0,0,1-5.621-2.014c-.1-.078-.192-.161-.286-.25l-.132-.12a8.722,8.722,0,0,1-2.62-4.605c0-.009,0-.019-.006-.028l-.006-.027a8.868,8.868,0,0,1,0-3.626A8.744,8.744,0,0,1,25.4,24.818l.062-.056c.078-.076.178-.162.279-.244a8.834,8.834,0,0,1,2.855-1.571h0a8.927,8.927,0,0,1,5.517,0l.006,0a8.761,8.761,0,0,1,2.929,1.632c.069.056.143.122.218.193l.1.091a8.873,8.873,0,0,1,2.655,4.652l.007.032a8.912,8.912,0,0,1,0,3.64c0,.007,0,.014,0,.021a8.882,8.882,0,0,1-2.764,4.759c-.062.06-.139.129-.22.194a8.748,8.748,0,0,1-2.923,1.625h0a8.8,8.8,0,0,1-2.67.436Zm-.038-1.288a7.322,7.322,0,0,0,2.164-.3l.664-1.148-1.4-2.416h-2.79l-1.393,2.416.661,1.145A7.5,7.5,0,0,0,31.32,38.932Zm3.944-2.094h1.315a7.613,7.613,0,0,0,2.135-3.684l-.662-1.147H35.263l-1.4,2.416Zm-9.124,0h1.313l1.393-2.416-1.393-2.416h-2.79L24,33.149A7.456,7.456,0,0,0,26.139,36.839Zm3.822-3.06h2.79l1.4-2.416-1.4-2.416h-2.79l-1.393,2.416Zm5.3-3.06h2.789l.661-1.147a7.6,7.6,0,0,0-2.135-3.684H35.263l-1.4,2.416Zm-10.6,0h2.79L28.846,28.3l-1.393-2.416H26.14A7.473,7.473,0,0,0,24,29.577Zm5.3-3.06h2.79l1.4-2.416L33.484,24.1a7.643,7.643,0,0,0-4.254,0l-.661,1.145Z" transform="translate(-22.5 -22.507)" fill="#375fc9"/></svg>